<svg width="38" height="31" viewBox="0 0 38 31" fill="none" xmlns="http://www.w3.org/2000/svg">
<path fill-rule="evenodd" clip-rule="evenodd" d="M28.5 5.16671H30.0833C31.825 5.16671 33.25 6.32921 33.25 7.75004V25.8334C33.25 27.2542 31.825 28.4167 30.0833 28.4167H7.91667C6.175 28.4167 4.75 27.2542 4.75 25.8334V7.75004C4.75 6.32921 6.175 5.16671 7.91667 5.16671H9.5V2.58337H12.6667V5.16671H25.3333V2.58337H28.5V5.16671ZM7.91667 25.8334H30.0833V12.9167H7.91667V25.8334ZM7.91667 10.3334V7.75004H30.0833V10.3334H7.91667ZM26.1092 16.1846L16.72 23.8442L11.7008 19.7496L13.3792 18.3805L16.72 21.1059L24.4308 14.8155L26.1092 16.1846Z" fill="black" fill-opacity="0.54"/>
</svg>
