<svg width="38" height="31" viewBox="0 0 38 31" fill="none" xmlns="http://www.w3.org/2000/svg">
<path fill-rule="evenodd" clip-rule="evenodd" d="M34.8333 15.5C34.8333 22.63 27.74 28.4167 19 28.4167C10.26 28.4167 3.16663 22.63 3.16663 15.5C3.16663 8.37004 10.26 2.58337 19 2.58337C27.74 2.58337 34.8333 8.37004 34.8333 15.5ZM14.25 18.4063C15.3425 18.4063 16.2291 17.683 16.2291 16.7917C16.2291 15.9005 15.3425 15.1771 14.25 15.1771C13.1575 15.1771 12.2708 15.9005 12.2708 16.7917C12.2708 17.683 13.1575 18.4063 14.25 18.4063ZM21.7708 16.7917C21.7708 15.9005 22.6575 15.1771 23.75 15.1771C24.8425 15.1771 25.7291 15.9005 25.7291 16.7917C25.7291 17.683 24.8425 18.4063 23.75 18.4063C22.6575 18.4063 21.7708 17.683 21.7708 16.7917ZM27.7083 10.3334C23.1166 10.3334 19.0949 8.31837 16.8783 5.32171C17.5591 5.23129 18.2716 5.16671 18.9999 5.16671C23.5916 5.16671 27.6133 7.18171 29.8299 10.1784C29.1491 10.2688 28.4366 10.3334 27.7083 10.3334ZM6.99828 12.2321C9.70578 10.9792 11.7958 8.93837 12.7933 6.49712C10.0858 7.75004 7.99578 9.79087 6.99828 12.2321ZM31.1441 12.6067C31.4766 13.5238 31.6666 14.4925 31.6666 15.5C31.6666 21.1963 25.9825 25.8334 19 25.8334C12.0175 25.8334 6.33329 21.1963 6.33329 15.5C6.33329 15.478 6.33513 15.456 6.33693 15.4345C6.34041 15.3929 6.34373 15.3532 6.33329 15.3192C10.45 14.0534 13.7591 11.4571 15.4216 8.15046C18.335 11.0567 22.7525 12.9167 27.7083 12.9167C28.8958 12.9167 30.0358 12.8005 31.1441 12.6067Z" fill="black" fill-opacity="0.54"/>
</svg>
