<svg width="73" height="59" viewBox="0 0 73 59" fill="none" xmlns="http://www.w3.org/2000/svg">
<path fill-rule="evenodd" clip-rule="evenodd" d="M51.7084 20.8958H54.75C58.0959 20.8958 60.8334 23.1083 60.8334 25.8125V50.3958C60.8334 53.1 58.0959 55.3125 54.75 55.3125H18.25C14.9042 55.3125 12.1667 53.1 12.1667 50.3958V25.8125C12.1667 23.1083 14.9042 20.8958 18.25 20.8958H21.2917V15.9792C21.2917 9.19417 28.105 3.6875 36.5 3.6875C44.895 3.6875 51.7084 9.19417 51.7084 15.9792V20.8958ZM36.5 8.60417C31.4509 8.60417 27.375 11.8983 27.375 15.9792V20.8958H45.625V15.9792C45.625 11.8983 41.5492 8.60417 36.5 8.60417ZM18.25 50.3958V25.8125H54.75V50.3958H18.25ZM42.5834 38.1042C42.5834 40.8083 39.8459 43.0208 36.5 43.0208C33.1542 43.0208 30.4167 40.8083 30.4167 38.1042C30.4167 35.4 33.1542 33.1875 36.5 33.1875C39.8459 33.1875 42.5834 35.4 42.5834 38.1042Z" fill="black" fill-opacity="0.54"/>
</svg>
