<svg width="38" height="34" viewBox="0 0 38 34" fill="none" xmlns="http://www.w3.org/2000/svg">
<path d="M21.8794 7.99994L31.4999 -5.33813e-06L31.4999 24.9999L21.8794 32.4731L21.8794 7.99994Z" fill="#060000"/>
<path d="M17.3535 16.8266C17.5487 16.6314 17.5487 16.3148 17.3535 16.1195L14.1715 12.9375C13.9762 12.7423 13.6596 12.7423 13.4644 12.9375C13.2691 13.1328 13.2691 13.4494 13.4644 13.6446L16.2928 16.4731L13.4644 19.3015C13.2691 19.4968 13.2691 19.8133 13.4644 20.0086C13.6596 20.2039 13.9762 20.2039 14.1715 20.0086L17.3535 16.8266ZM8.99991 16.9731H16.9999V15.9731H8.99991V16.9731Z" fill="black"/>
<line x1="21.9999" y1="0.973068" x2="8.99991" y2="0.973068" stroke="black"/>
<line x1="8.54464" y1="22.3024" x2="8.4746" y2="32.475" stroke="black"/>
<line x1="8.49991" y1="11.4731" x2="8.49992" y2="0.473051" stroke="black"/>
<line x1="21.0027" y1="32.8944" x2="8.00292" y2="32.9729" stroke="black"/>
<ellipse cx="6.49991" cy="16.4731" rx="1.5" ry="1" fill="#070000"/>
</svg>
