<svg width="45" height="32" viewBox="0 0 45 32" fill="none" xmlns="http://www.w3.org/2000/svg">
<rect width="45" height="32" fill="white"/>
<path d="M19.5 6C21.2239 6 22.8772 6.68482 24.0962 7.90381C25.3152 9.12279 26 10.7761 26 12.5C26 14.11 25.41 15.59 24.44 16.73L24.71 17H25.5L30.5 22L29 23.5L24 18.5V17.71L23.73 17.44C22.5505 18.4468 21.0507 18.9999 19.5 19C17.7761 19 16.1228 18.3152 14.9038 17.0962C13.6848 15.8772 13 14.2239 13 12.5C13 10.7761 13.6848 9.12279 14.9038 7.90381C16.1228 6.68482 17.7761 6 19.5 6ZM19.5 8C17 8 15 10 15 12.5C15 15 17 17 19.5 17C22 17 24 15 24 12.5C24 10 22 8 19.5 8Z" fill="black" fill-opacity="0.54"/>
</svg>
